<?xml version="1.0" encoding="UTF-8"?>
<svg id="logo" xmlns="http://www.w3.org/2000/svg" viewBox="0 0 146.43 20.07">
  <defs>
    <style>
      .cls-1 {
        fill: #666;
      }

      .cls-2 {
        fill: #e2750f;
      }
    </style>
  </defs>
  <g id="Main_logo" data-name="Main logo">
    <g>
      <g>
        <path class="cls-2" d="m16.22,11.92l3.15-5.13c.37,1.04.57,2.15.57,3.32,0,5.5-4.46,9.97-9.97,9.97S0,15.61,0,10.11,4.46.14,9.97.14c3.09,0,5.85,1.41,7.68,3.61l-2.81,4.58-2.09-2.98c-.33-.47-.9-.72-1.46-.64-.57.08-1.04.47-1.23,1.02l-1.38,4.02-1.21-1.54c-.35-.45-.92-.66-1.48-.56-.56.1-1.01.51-1.18,1.05l-1.7,5.47c-.25.8.2,1.66,1,1.91.15.05.3.07.45.07.65,0,1.25-.42,1.46-1.07l.84-2.7,1.15,1.47c.35.44.9.65,1.46.56.55-.09,1.01-.48,1.19-1.01l1.31-3.84,1.7,2.43c.3.42.78.67,1.3.65.51-.02.99-.29,1.26-.73ZM20.61,0c-1.09,0-1.98.89-1.98,1.98s.89,1.98,1.98,1.98,1.98-.89,1.98-1.98-.89-1.98-1.98-1.98Z"/>
        <g>
          <path d="m34.18,8.21h-.02l-2.15,6h-.64l-2.07-6h-.02l-.84,5.87h-1.86l1.59-9.72h1.31l2.33,6.24,2.23-6.24h1.33l1.42,9.72h-1.86l-.75-5.87Zm9.74,2.8c0,1.91-1.3,3.28-3.24,3.28s-3.24-1.37-3.24-3.28,1.32-3.29,3.24-3.29,3.24,1.37,3.24,3.29Zm-4.69,0c0,.83.55,1.72,1.46,1.72s1.46-.89,1.46-1.72-.55-1.73-1.46-1.73-1.46.88-1.46,1.73Zm7.59-2.52h.03c.36-.55.98-.77,1.61-.77,1.66,0,2.13,1.17,2.13,2.6v3.77h-1.76v-3.26c0-.74.04-1.7-.95-1.7-1.04,0-1.05,1.17-1.05,1.91v3.05h-1.76v-6.16h1.76v.57Zm6.75,2.8c0,.78.3,1.66,1.22,1.66.58,0,.94-.35,1.18-.84l1.62.26c-.43,1.23-1.51,1.92-2.8,1.92-1.91,0-3.08-1.36-3.08-3.23s.99-3.34,2.99-3.34,2.92,1.49,2.92,3.35v.21h-4.05Zm2.4-1.09c-.09-.63-.49-1.24-1.17-1.24s-1.09.6-1.18,1.24h2.35Zm1.93-2.27h2l1.47,3.5,1.58-3.5h1.96l-4.48,9.45h-1.93l2.03-4.23-2.62-5.22Z"/>
          <path class="cls-2" d="m70.44,6.22v2.08h2.67v1.61h-2.67v4.17h-1.85V4.62h4.69v1.61h-2.85Zm9.67,4.78c0,1.91-1.31,3.28-3.24,3.28s-3.24-1.37-3.24-3.28,1.32-3.29,3.24-3.29,3.24,1.37,3.24,3.29Zm-4.7,0c0,.83.55,1.72,1.46,1.72s1.46-.89,1.46-1.72-.55-1.73-1.46-1.73-1.46.88-1.46,1.73Zm7.6-2.45h.02c.35-.54.88-.84,1.53-.84.25,0,.5.06.73.15l-.21,1.63c-.21-.15-.47-.23-.73-.23-1.22,0-1.34,1.08-1.34,2.03v2.77h-1.76v-6.16h1.76v.64Zm12.66.52l-2.43,5.13h-.89l-1.32-3.75-1.47,3.75h-.9l-2.84-6.29h1.92l1.36,3.26,1.43-3.46h.98l1.39,3.39,1.21-2.63s1.53-3.81,5.07-3.83l.34,1.48s-2.48-.17-3.85,2.94Zm6.97,5h-1.73v-.56h-.02c-.38.49-1.03.77-1.67.77-1.81,0-2.84-1.65-2.84-3.31s1.04-3.25,2.81-3.25c.64,0,1.29.28,1.72.78v-.58h1.73v6.16Zm-1.56-3.09c0-.83-.56-1.72-1.47-1.72s-1.46.89-1.46,1.72.55,1.73,1.46,1.73,1.47-.91,1.47-1.73Zm4.9-2.44h.02c.35-.54.88-.84,1.53-.84.25,0,.5.06.73.15l-.21,1.63c-.21-.15-.46-.23-.73-.23-1.22,0-1.34,1.08-1.34,2.03v2.77h-1.76v-6.16h1.76v.64Zm7.24,4.95h-.02c-.36.5-1.02.78-1.66.78-1.81,0-2.84-1.65-2.84-3.31s1.04-3.25,2.81-3.25c.64,0,1.29.28,1.68.77h.02v-3.87h1.76v9.47h-1.76v-.58Zm.18-2.51c0-.83-.55-1.72-1.46-1.72s-1.46.89-1.46,1.72.55,1.73,1.46,1.73,1.46-.91,1.46-1.73Z"/>
        </g>
      </g>
      <g>
        <path class="cls-1" d="m121.66,14.08h-1.85V4.62h1.85v9.47Z"/>
        <path class="cls-1" d="m124.84,8.48h.03c.36-.55.98-.77,1.61-.77,1.66,0,2.13,1.17,2.13,2.6v3.77h-1.76v-3.26c0-.74.04-1.69-.95-1.69-1.04,0-1.05,1.17-1.05,1.91v3.05h-1.76v-6.16h1.76v.56Z"/>
        <path class="cls-1" d="m134.16,13.5h-.03c-.36.5-1.02.78-1.66.78-1.81,0-2.84-1.64-2.84-3.31s1.04-3.25,2.81-3.25c.64,0,1.29.28,1.68.77h.03v-3.87h1.76v9.47h-1.76v-.58Zm.18-2.51c0-.83-.55-1.72-1.46-1.72s-1.46.89-1.46,1.72.55,1.73,1.46,1.73,1.46-.9,1.46-1.73Z"/>
        <path class="cls-1" d="m139.3,5.33c0,.58-.46,1.04-1.04,1.04s-1.04-.46-1.04-1.04.46-1.04,1.04-1.04,1.04.48,1.04,1.04Zm-.16,8.75h-1.76v-6.16h1.76v6.16Z"/>
        <path class="cls-1" d="m146.43,14.08h-1.73v-.56h-.03c-.38.49-1.03.77-1.67.77-1.81,0-2.84-1.64-2.84-3.31s1.04-3.25,2.81-3.25c.64,0,1.29.28,1.72.78v-.58h1.73v6.16Zm-1.56-3.09c0-.83-.56-1.72-1.47-1.72s-1.46.89-1.46,1.72.55,1.73,1.46,1.73,1.47-.9,1.47-1.73Z"/>
      </g>
    </g>
  </g>
</svg>